<svg width="45" height="45" viewBox="0 0 45 45" fill="none" xmlns="http://www.w3.org/2000/svg">
<path d="M22.4578 8.9831C23.0534 8.9831 23.6246 8.7465 24.0458 8.32533C24.4669 7.90417 24.7035 7.33294 24.7035 6.73733V2.24578C24.7035 1.65016 24.4669 1.07894 24.0458 0.657772C23.6246 0.236608 23.0534 0 22.4578 0C21.8621 0 21.2909 0.236608 20.8697 0.657772C20.4486 1.07894 20.212 1.65016 20.212 2.24578V6.73733C20.212 7.33294 20.4486 7.90417 20.8697 8.32533C21.2909 8.7465 21.8621 8.9831 22.4578 8.9831Z" fill="#FEFEFE"/>
<path d="M42.6697 20.212H38.1781C37.5825 20.212 37.0113 20.4486 36.5901 20.8697C36.169 21.2909 35.9324 21.8621 35.9324 22.4578C35.9324 23.0534 36.169 23.6246 36.5901 24.0458C37.0113 24.4669 37.5825 24.7035 38.1781 24.7035H42.6697C43.2653 24.7035 43.8365 24.4669 44.2577 24.0458C44.6789 23.6246 44.9155 23.0534 44.9155 22.4578C44.9155 21.8621 44.6789 21.2909 44.2577 20.8697C43.8365 20.4486 43.2653 20.212 42.6697 20.212Z" fill="#FEFEFE"/>
<path d="M8.9831 22.4578C8.9831 21.8621 8.7465 21.2909 8.32533 20.8697C7.90417 20.4486 7.33294 20.212 6.73733 20.212H2.24578C1.65016 20.212 1.07894 20.4486 0.657772 20.8697C0.236608 21.2909 0 21.8621 0 22.4578C0 23.0534 0.236608 23.6246 0.657772 24.0458C1.07894 24.4669 1.65016 24.7035 2.24578 24.7035H6.73733C7.33294 24.7035 7.90417 24.4669 8.32533 24.0458C8.7465 23.6246 8.9831 23.0534 8.9831 22.4578Z" fill="#FEFEFE"/>
<path d="M9.47714 6.73736C9.03936 6.32341 8.45507 6.10031 7.85281 6.11716C7.25054 6.13401 6.67963 6.38941 6.26568 6.82719C5.85173 7.26497 5.62863 7.84926 5.64548 8.45153C5.66233 9.05379 5.91773 9.6247 6.35551 10.0387L9.58943 13.1603C9.80645 13.3698 10.0635 13.5335 10.3451 13.6416C10.6268 13.7496 10.9274 13.7998 11.2288 13.7891C11.5314 13.7879 11.8305 13.7257 12.1084 13.606C12.3862 13.4864 12.6371 13.3119 12.8458 13.0929C13.2641 12.6721 13.4989 12.1029 13.4989 11.5096C13.4989 10.9163 13.2641 10.3471 12.8458 9.92636L9.47714 6.73736Z" fill="#FEFEFE"/>
<path d="M33.6866 13.7891C34.2648 13.7868 34.8199 13.5615 35.2362 13.1602L38.4701 10.0386C38.8646 9.62641 39.0874 9.07949 39.0933 8.50895C39.0992 7.93841 38.8877 7.38702 38.5017 6.96678C38.1158 6.54653 37.5844 6.28894 37.0154 6.24633C36.4464 6.20371 35.8825 6.37926 35.4383 6.73733L32.2044 9.92633C31.7861 10.3471 31.5513 10.9163 31.5513 11.5096C31.5513 12.1029 31.7861 12.6721 32.2044 13.0929C32.5932 13.5032 33.1225 13.7518 33.6866 13.7891Z" fill="#FEFEFE"/>
<path d="M22.4578 35.9324C21.8621 35.9324 21.2909 36.169 20.8697 36.5902C20.4486 37.0114 20.212 37.5826 20.212 38.1782V42.6698C20.212 43.2654 20.4486 43.8366 20.8697 44.2578C21.2909 44.6789 21.8621 44.9155 22.4578 44.9155C23.0534 44.9155 23.6246 44.6789 24.0458 44.2578C24.4669 43.8366 24.7035 43.2654 24.7035 42.6698V38.1782C24.7035 37.5826 24.4669 37.0114 24.0458 36.5902C23.6246 36.169 23.0534 35.9324 22.4578 35.9324Z" fill="#FEFEFE"/>
<path d="M35.3261 31.7553C34.8972 31.3413 34.3215 31.1147 33.7256 31.1252C33.1296 31.1357 32.5623 31.3826 32.1483 31.8114C31.7343 32.2403 31.5077 32.816 31.5182 33.4119C31.5288 34.0079 31.7756 34.5752 32.2044 34.9892L35.4384 38.1782C35.8547 38.5795 36.4097 38.8047 36.9879 38.807C37.2889 38.8088 37.5871 38.75 37.8648 38.6343C38.1426 38.5186 38.3943 38.3482 38.6049 38.1333C38.8154 37.9245 38.9825 37.6761 39.0965 37.4024C39.2105 37.1288 39.2692 36.8352 39.2692 36.5388C39.2692 36.2423 39.2105 35.9488 39.0965 35.6751C38.9825 35.4014 38.8154 35.153 38.6049 34.9443L35.3261 31.7553Z" fill="#FEFEFE"/>
<path d="M9.89821 31.563L6.6643 34.6847C6.4538 34.8934 6.28673 35.1418 6.17272 35.4155C6.0587 35.6892 6 35.9827 6 36.2792C6 36.5756 6.0587 36.8692 6.17272 37.1428C6.28673 37.4165 6.4538 37.6649 6.6643 37.8737C6.87493 38.0886 7.12661 38.259 7.40438 38.3747C7.68215 38.4904 7.98034 38.5492 8.28126 38.5474C8.83487 38.5521 9.37072 38.3522 9.78592 37.986L13.0198 34.8643C13.4487 34.4504 13.6955 33.883 13.7061 33.2871C13.7166 32.6911 13.4899 32.1154 13.076 31.6866C12.662 31.2577 12.0947 31.0109 11.4987 31.0004C10.9028 30.9898 10.3271 31.2165 9.89821 31.6304V31.563Z" fill="#FEFEFE"/>
<path d="M22.4577 13.4747C20.681 13.4747 18.9442 14.0015 17.467 14.9886C15.9897 15.9757 14.8383 17.3786 14.1584 19.0201C13.4785 20.6615 13.3006 22.4677 13.6472 24.2103C13.9938 25.9528 14.8494 27.5535 16.1057 28.8098C17.362 30.0661 18.9627 30.9217 20.7052 31.2683C22.4478 31.6149 24.254 31.437 25.8954 30.7571C27.5369 30.0772 28.9398 28.9258 29.9269 27.4485C30.914 25.9713 31.4408 24.2345 31.4408 22.4578C31.4408 20.0753 30.4944 17.7904 28.8097 16.1058C27.1251 14.4211 24.8402 13.4747 22.4577 13.4747Z" fill="#FEFEFE"/>
</svg>
