<svg width="33" height="33" viewBox="0 0 33 33" fill="none" xmlns="http://www.w3.org/2000/svg">
<path d="M29.6037 21.9038C29.3837 21.5325 28.765 20.955 27.225 21.23C26.3725 21.3813 25.5062 21.45 24.64 21.4088C21.4362 21.2713 18.535 19.8 16.5137 17.5313C14.7262 15.5375 13.6262 12.9388 13.6125 10.1338C13.6125 8.56626 13.915 7.05376 14.5337 5.62376C15.1387 4.23501 14.7125 3.50626 14.41 3.20376C14.0937 2.88751 13.3512 2.44751 11.8937 3.05251C6.26996 5.41751 2.79122 11.055 3.20372 17.0913C3.61622 22.77 7.60371 27.6238 12.8837 29.4525C14.1487 29.8925 15.4825 30.1538 16.8575 30.2088C17.0775 30.2225 17.2975 30.2363 17.5175 30.2363C22.1237 30.2363 26.4412 28.0638 29.1637 24.365C30.085 23.0863 29.8375 22.275 29.6037 21.9038Z" fill="#1A1A1A"/>
</svg>
