<svg width="46" height="45" viewBox="0 0 46 45" fill="none" xmlns="http://www.w3.org/2000/svg">
<path d="M-1.52588e-05 9C-1.52588e-05 4.02944 4.02942 0 8.99998 0H36.7627C41.7333 0 45.7627 4.02944 45.7627 9V36C45.7627 40.9706 41.7333 45 36.7627 45H8.99999C4.02942 45 -1.52588e-05 40.9706 -1.52588e-05 36V9Z" fill="#A5A6F6"/>
<path d="M18.2437 34.322C16.6351 34.322 15.1995 33.9385 13.9368 33.1713C12.6828 32.3962 11.6969 31.2939 10.979 29.8647C10.2699 28.4273 9.91528 26.7033 9.91528 24.6927C9.91528 22.682 10.2742 20.9621 10.992 19.5328C11.7185 18.1036 12.713 17.0094 13.9757 16.2504C15.2384 15.4913 16.6697 15.1118 18.2696 15.1118C19.5064 15.1118 20.5009 15.3056 21.2533 15.6932C22.0144 16.0727 22.6025 16.5168 23.0176 17.0256C23.4414 17.5343 23.77 17.9824 24.0035 18.37H24.237V9.15253H28.1159V33.9586H24.3279V31.0638H24.0035C23.77 31.4595 23.4327 31.9117 22.9917 32.4204C22.5593 32.9291 21.9625 33.3732 21.2015 33.7527C20.4404 34.1323 19.4545 34.322 18.2437 34.322ZM19.0999 31.2334C20.2155 31.2334 21.1582 30.9588 21.9279 30.4097C22.7063 29.8526 23.2944 29.0814 23.6922 28.0963C24.0987 27.1111 24.3019 25.9645 24.3019 24.6564C24.3019 23.3644 24.103 22.2339 23.7052 21.2649C23.3073 20.2959 22.7236 19.5409 21.9539 18.9999C21.1842 18.4589 20.2328 18.1883 19.0999 18.1883C17.9324 18.1883 16.9594 18.471 16.1811 19.0362C15.4027 19.6015 14.8146 20.3726 14.4168 21.3497C14.0276 22.3267 13.833 23.429 13.833 24.6564C13.833 25.8999 14.0319 27.0183 14.4298 28.0115C14.8276 29.0047 15.4157 29.792 16.194 30.3734C16.981 30.9467 17.9497 31.2334 19.0999 31.2334Z" fill="#1A1A1A"/>
<path d="M34.0157 34.1888C33.3065 34.1888 32.6968 33.9546 32.1865 33.4863C31.6763 33.0098 31.4212 32.4365 31.4212 31.7663C31.4212 31.1042 31.6763 30.5389 32.1865 30.0706C32.6968 29.5942 33.3065 29.3559 34.0157 29.3559C34.7248 29.3559 35.3346 29.5942 35.8448 30.0706C36.3551 30.5389 36.6102 31.1042 36.6102 31.7663C36.6102 32.2104 36.4891 32.6182 36.247 32.9897C36.0135 33.353 35.7021 33.6437 35.3129 33.8617C34.9238 34.0798 34.4913 34.1888 34.0157 34.1888Z" fill="#1A1A1A"/>
</svg>
