<svg width="284" height="415" viewBox="0 0 284 415" fill="none" xmlns="http://www.w3.org/2000/svg">
<path d="M283.354 35.6377H281.573V46.9116H283.354V35.6377Z" fill="#5D5FEF"/>
<path d="M283.355 26.4713H281.641C281.632 19.9049 279.018 13.6103 274.374 8.96877C269.729 4.32722 263.432 1.71789 256.866 1.71335V0C263.881 0.0225631 270.603 2.8182 275.565 7.77716C280.527 12.7361 283.327 19.4561 283.355 26.4713Z" fill="#5D5FEF"/>
<path d="M256.797 6.16821H20.3204C9.09774 6.16821 0 15.266 0 26.4886V508.798C0 520.02 9.09774 529.118 20.3204 529.118H256.797C268.02 529.118 277.118 520.02 277.118 508.798V26.4886C277.118 15.266 268.02 6.16821 256.797 6.16821Z" fill="#5D5FEF"/>
<path opacity="0.95" d="M267.9 508.798L267.9 26.4716C267.9 19.5733 262.308 13.9812 255.41 13.9812L18.9326 13.9812C12.0344 13.9812 6.44223 19.5733 6.44223 26.4716L6.44223 508.798C6.44223 515.696 12.0344 521.288 18.9326 521.288H255.41C262.308 521.288 267.9 515.696 267.9 508.798Z" fill="white"/>
<path d="M126.377 12.5588C126.377 15.6534 127.606 18.6212 129.794 20.8093C131.983 22.9975 134.95 24.2268 138.045 24.2268C141.139 24.2268 144.107 22.9975 146.295 20.8093C148.484 18.6212 149.713 15.6534 149.713 12.5588H126.377Z" fill="#5D5FEF"/>
<path opacity="0.7" d="M214.341 63.1885H61.8521C55.6322 63.2066 49.6723 65.6854 45.2742 70.0835C40.8761 74.4816 38.3972 80.4416 38.3792 86.6614V102.321C38.3972 108.541 40.8761 114.501 45.2742 118.899C49.6723 123.297 55.6322 125.776 61.8521 125.794H214.341L237.814 139.707V86.5929C237.773 80.3863 235.285 74.4465 230.89 70.0641C226.494 65.6818 220.547 63.2109 214.341 63.1885Z" fill="#5D5FEF"/>
<path d="M210.091 85.6162H66.0155V89.5227H210.091V85.6162Z" fill="white"/>
<path d="M210.091 99.4604H93.7375V103.367H210.091V99.4604Z" fill="white"/>
<path opacity="0.15" d="M61.7663 167.429H214.255C220.475 167.447 226.435 169.926 230.833 174.324C235.231 178.722 237.71 184.682 237.728 190.902V206.545C237.71 212.765 235.231 218.725 230.833 223.123C226.435 227.521 220.475 230 214.255 230.018H61.7663L38.2933 243.93V190.816C38.3295 184.61 40.8168 178.669 45.2135 174.289C49.6102 169.908 55.5598 167.443 61.7663 167.429Z" fill="#5D5FEF"/>
<path opacity="0.5" d="M210.091 189.84H66.0155V193.746H210.091V189.84Z" fill="#5D5FEF"/>
<path opacity="0.5" d="M132.836 203.701H66.0155V207.607H132.836V203.701Z" fill="#5D5FEF"/>
<path opacity="0.5" d="M170.444 203.701H143.271V207.607H170.444V203.701Z" fill="#5D5FEF"/>
<path opacity="0.7" d="M214.341 271.652H61.8521C55.6322 271.67 49.6723 274.149 45.2742 278.547C40.8761 282.945 38.3972 288.905 38.3792 295.125V310.768C38.3927 316.989 40.8701 322.952 45.2692 327.351C49.6683 331.75 55.6309 334.227 61.8521 334.241H214.341L237.814 348.153V295.039C237.768 288.836 235.278 282.9 230.883 278.522C226.489 274.143 220.544 271.674 214.341 271.652Z" fill="#5D5FEF"/>
<path d="M210.091 294.063H66.0155V297.969H210.091V294.063Z" fill="white"/>
<path d="M210.091 307.924H93.7375V311.831H210.091V307.924Z" fill="white"/>
<path opacity="0.15" d="M61.7663 375.876H121.1C127.318 375.898 133.276 378.379 137.673 382.776C142.07 387.173 144.55 393.13 144.573 399.349V415.009C144.55 421.227 142.07 427.185 137.673 431.582C133.276 435.979 127.318 438.459 121.1 438.482H61.7663L38.2933 452.377V399.349C38.3114 393.129 40.7903 387.169 45.1884 382.771C49.5865 378.373 55.5465 375.894 61.7663 375.876Z" fill="#5D5FEF"/>
<path opacity="0.5" d="M73.657 407.179C73.657 408.534 73.2551 409.859 72.502 410.986C71.749 412.113 70.6786 412.992 69.4263 413.51C68.174 414.029 66.796 414.165 65.4666 413.9C64.1372 413.636 62.916 412.983 61.9575 412.025C60.9991 411.066 60.3463 409.845 60.0819 408.516C59.8174 407.186 59.9532 405.808 60.4719 404.556C60.9906 403.304 61.869 402.233 62.9961 401.48C64.1231 400.727 65.4481 400.325 66.8036 400.325C68.6143 400.347 70.3447 401.077 71.6251 402.357C72.9056 403.638 73.6348 405.368 73.657 407.179Z" fill="#5D5FEF"/>
<path opacity="0.5" d="M87.5181 408.566C91.3504 408.566 94.4571 405.459 94.4571 401.627C94.4571 397.795 91.3504 394.688 87.5181 394.688C83.6857 394.688 80.579 397.795 80.579 401.627C80.579 405.459 83.6857 408.566 87.5181 408.566Z" fill="#5D5FEF"/>
<path opacity="0.5" d="M115.24 415.488C115.24 416.844 114.838 418.169 114.085 419.296C113.332 420.423 112.262 421.301 111.009 421.82C109.757 422.339 108.379 422.474 107.05 422.21C105.72 421.945 104.499 421.293 103.541 420.334C102.582 419.376 101.929 418.155 101.665 416.825C101.4 415.496 101.536 414.118 102.055 412.865C102.574 411.613 103.452 410.543 104.579 409.79C105.706 409.037 107.031 408.635 108.387 408.635C110.204 408.635 111.947 409.357 113.233 410.642C114.518 411.927 115.24 413.671 115.24 415.488Z" fill="#5D5FEF"/>
</svg>
