<svg width="354" height="97" viewBox="0 0 354 97" fill="none" xmlns="http://www.w3.org/2000/svg">
<path fill-rule="evenodd" clip-rule="evenodd" d="M104.934 89.4558C48.8206 97.9683 48.4457 97.7567 46.4987 96.072C45.4484 95.1632 37.0981 94.9343 27.9425 95.5632C16.9766 96.3165 10.269 96.0021 8.2867 94.6417C6.63168 93.506 4.56406 92.6729 3.69205 92.7905C2.82003 92.908 1.90567 91.5135 1.66008 89.6916C1.30416 87.0512 2.31808 86.2302 6.65719 85.6453C9.65113 85.2417 12.0003 84.1662 11.8775 83.2552C11.7547 82.3443 10.2072 81.794 8.43854 82.0324C3.79003 82.659 2.0061 79.5647 6.52747 78.7176C8.61695 78.3261 10.8975 78.0187 11.5955 78.0344C12.2934 78.0502 12.764 77.3177 12.6412 76.4068C12.5184 75.4958 10.5541 75.0017 8.27609 75.3088C5.99807 75.6159 4.03375 75.1218 3.91095 74.2108C3.78816 73.2999 4.47415 72.4486 5.43532 72.319C6.35774 72.1947 10.1444 70.187 13.9969 67.7907C11.8878 67.7498 10.5881 67.4968 10.5263 67.0378C10.4035 66.1269 13.0974 64.9945 16.5127 64.5215C18.3836 64.2624 20.6064 63.7975 22.5945 63.2752C24.8171 62.3254 27.2735 61.4112 30.041 60.5138L30.6945 60.2327L25.5747 59.7929C22.6455 59.5412 24.9666 58.7378 32.1719 57.4889C33.8787 57.0997 34.4661 56.1112 33.7483 54.7987C33.6225 54.5688 33.5431 54.3378 33.5083 54.1084C24.2257 55.5854 15.2292 57.2518 11.055 58.4459C2.30517 60.9489 -0.270771 61.0551 1.41604 58.8434C2.85758 56.9531 14.2659 52.7811 19.3712 52.2771C22.0474 52.0129 24.6637 50.8408 25.1851 49.6723C25.7064 48.5039 28.6146 47.285 31.6475 46.9636C32.3954 46.8844 33.1514 46.7647 33.8784 46.6161C32.6537 45.6757 33.4569 45.1113 36.5397 43.1724C37.1315 42.8002 37.6874 42.3803 38.185 41.9405C35.2526 42.3054 31.3069 42.8814 26.7685 43.6218C0.853743 47.8497 9.09027 44.2597 37.5289 38.9318C38.5231 38.7456 39.5174 38.5575 40.5064 38.3687C40.5053 38.3222 40.5019 38.2769 40.4959 38.2328C40.3284 36.9898 42.515 35.1734 45.3551 34.1964C49.7694 32.6778 50.0244 32.2996 47.1124 31.5906C45.2388 31.1345 66.4527 27.7558 94.2544 24.0823C122.056 20.4088 141.518 18.3769 137.504 19.567C131.268 21.4155 130.939 21.7078 135.244 21.5736C136.869 21.5229 147.177 20.3487 161.772 18.5769C176.315 16.421 186.565 14.8241 188.146 14.4425C192.333 13.432 191.939 13.2373 185.436 13.1059C181.249 13.0213 200.555 9.82741 228.337 6.00839C256.119 2.18934 277.471 -0.16955 275.785 0.766393C273.164 2.2211 273.51 2.51829 278.169 2.81384C281.167 3.004 283.756 4.17655 283.924 5.41953C283.93 5.46363 283.938 5.50827 283.949 5.55339C284.953 5.47357 285.962 5.39168 286.97 5.30804C315.804 2.91569 324.697 4.19663 298.588 6.98147C294.016 7.46916 290.058 7.95846 287.134 8.38301C287.73 8.67539 288.377 8.93314 289.047 9.13533C292.533 10.1887 293.457 10.5203 292.525 11.7514C293.265 11.7022 294.026 11.6175 294.768 11.4959C297.778 11.0027 300.905 11.4081 301.717 12.3968C302.529 13.3854 305.362 13.823 308.013 13.3691C311.482 12.7753 318.267 13.0604 322.797 13.7632C323.385 13.8184 323.842 13.8986 324.172 14.0035C325.567 14.2794 326.612 14.6004 327.066 14.9468C327.177 15.0311 327.275 15.1126 327.362 15.1914C328.705 15.4202 330.278 15.467 331.701 15.2752C335.718 14.7336 336.462 15.2027 336.113 18.0532C335.793 20.6681 336.509 21.3726 339.128 21.0196C341.016 20.765 342.138 21.1132 341.619 21.7934C341.47 21.9891 341.411 22.2511 341.434 22.5521C348.024 22.118 352.362 22.1426 352.05 22.8729C351.7 23.69 348.171 25.302 344.047 26.5542C344.126 26.8525 343.975 27.0124 343.571 26.967C342.093 26.8006 338.067 29.1758 335.624 31.2531C335.611 31.9344 334.856 32.9019 333.676 33.8555C333.856 34.5155 335.146 34.5106 336.619 33.8254C338.701 32.8572 338.636 33.1588 336.36 35.0286C335.858 35.4407 335.342 35.9276 334.85 36.4429C336.584 36.1479 338.726 35.7578 341.312 35.271C349.902 33.6545 355.272 32.9806 353.245 33.7735C350.512 34.8423 350.083 35.6826 351.585 37.0231C353.141 38.412 351.478 39.5765 344.409 42.0457C334.465 45.5195 328.285 48.6545 327.625 50.4225C329.55 50.7863 330.984 51.4632 331.092 52.2653C331.112 52.4143 330.568 52.6241 329.565 52.8766C329.728 54.8952 324.655 57.9246 316.72 60.1785C311.605 61.6316 308.553 62.7728 309.939 62.7143C312.002 62.6275 311.991 62.9839 309.881 64.6798C308.464 65.819 302.754 67.0529 297.192 67.422C291.155 67.8224 287.178 68.7429 287.323 69.7064C287.624 71.7081 261.093 75.7222 239.389 76.959C207.718 78.7639 199.854 79.5121 205.222 80.2101C209.477 80.7633 208.682 81.1063 200.736 82.1452C195.424 82.8396 190.671 82.9274 190.173 82.3403C189.741 81.8312 188.182 81.5662 185.376 81.5547C181.583 82.6344 179.113 83.499 178.796 83.9151C178.386 84.452 176.187 85.143 173.909 85.4501C168.694 86.1531 169.859 84.4391 175.934 82.471C176.506 82.2856 177.064 82.0951 177.589 81.908C169.265 82.5373 156.613 84.0132 138.936 86.3908C119.213 89.0435 108.354 90.0281 104.934 89.4558ZM319.841 24.6675C324.829 24.0594 329.789 23.5286 334.269 23.1218C334.353 21.8494 333.514 21.0096 332.394 21.2527C331.267 21.4973 326.077 22.4099 320.86 23.2802C318.583 23.6601 316.879 23.9764 315.677 24.2625C317.504 24.1596 319.034 24.3132 319.841 24.6675ZM28.5228 50.3773C28.4686 49.9756 29.1078 49.0858 29.9432 48.3999C30.7785 47.7141 31.5683 47.9423 31.6984 48.907C31.8284 49.8717 31.1893 50.7615 30.2781 50.8844C29.3668 51.0072 28.5769 50.779 28.5228 50.3773ZM269.325 3.48432C268.639 2.64928 268.867 1.85965 269.832 1.72956C270.797 1.59948 271.687 2.23837 271.81 3.14933C271.933 4.06028 271.704 4.84993 271.303 4.9041C270.901 4.95825 270.011 4.31936 269.325 3.48432ZM221.527 8.67083C229.915 7.23405 243.708 5.37489 252.177 4.53934C260.646 3.7038 253.783 4.87932 236.926 7.15163C220.068 9.42395 213.139 10.1076 221.527 8.67083ZM298.685 13.9603C298.631 13.5586 297.779 12.8698 296.792 12.4297C295.805 11.9895 295.104 12.4187 295.234 13.3834C295.364 14.3481 296.216 15.0369 297.127 14.9141C298.038 14.7912 298.739 14.3621 298.685 13.9603ZM54.0613 32.5011C54.5017 31.5142 54.0725 30.8132 53.1074 30.9433C52.1424 31.0734 51.4533 31.9252 51.5761 32.8361C51.6989 33.7471 52.1282 34.4481 52.53 34.3939C52.9318 34.3397 53.6209 33.488 54.0613 32.5011ZM101.526 24.8465C93.0571 25.6821 79.2647 27.5412 70.8765 28.978C62.4884 30.4148 69.4177 29.7311 86.2751 27.4588C103.132 25.1865 109.995 24.011 101.526 24.8465ZM60.7555 92.3401C58.6521 92.2217 55.2971 92.6739 53.3001 93.3451C51.3032 94.0162 53.0241 94.1131 57.1246 93.5604C61.225 93.0077 62.8589 92.4585 60.7555 92.3401Z" fill="#A5A6F6"/>
</svg>
